<?xml version="1.0" encoding="utf-8"?>
<!-- Generator: Adobe Illustrator 18.0.0, SVG Export Plug-In . SVG Version: 6.00 Build 0)  -->
<!DOCTYPE svg PUBLIC "-//W3C//DTD SVG 1.1//EN" "http://www.w3.org/Graphics/SVG/1.1/DTD/svg11.dtd">
<svg version="1.1" id="Layer_1" xmlns="http://www.w3.org/2000/svg" xmlns:xlink="http://www.w3.org/1999/xlink" x="0px" y="0px"
	 viewBox="0 0 40 40" enable-background="new 0 0 40 40" xml:space="preserve">
<g>
	<g transform="translate(0,-952.36218)">
		<path fill="#D8D8D8" d="M13.1,978.8c-1.8,0-3.2,1.4-3.2,3.2s1.4,3.2,3.2,3.2s3.2-1.4,3.2-3.2C16.3,980.2,14.9,978.8,13.1,978.8z
			 M13.1,983.2c-0.7,0-1.3-0.6-1.3-1.3c0-0.7,0.6-1.3,1.3-1.3c0.7,0,1.3,0.6,1.3,1.3S13.8,983.2,13.1,983.2z"/>
		<path fill="#D8D8D8" d="M26.9,970.5l-0.1,0.6l-14.6,1.2l-3.1-7.6h19.1l0,0h2l0.2-0.8c0.1-0.6-0.4-1.2-0.9-1.2H8.3l-1-2.6
			c-0.1-0.4-0.5-0.6-0.9-0.6l-3.8,0c-0.5,0-1,0.4-1,1c0,0.5,0.4,1,1,1h3.2c1.6,3.9,3.2,7.9,4.7,11.8L9,976.8
			c-0.1,0.3-0.1,0.6,0.1,0.9c0.2,0.3,0.5,0.4,0.8,0.4h16c0.5,0,1-0.5,1-1c0-0.5-0.5-1-1-1H11.4l0.8-2l15.4-1.2
			c0.4,0,0.8-0.3,0.9-0.7l0.4-1.7H26.9z"/>
		<path fill="#D8D8D8" d="M22.7,978.8c-1.8,0-3.2,1.4-3.2,3.2c0,1.8,1.4,3.2,3.2,3.2c1.8,0,3.2-1.4,3.2-3.2S24.5,978.8,22.7,978.8z
			 M22.7,983.2c-0.7,0-1.3-0.6-1.3-1.3s0.6-1.3,1.3-1.3s1.3,0.6,1.3,1.3C24,982.7,23.4,983.2,22.7,983.2z"/>
	</g>
	<g>
		
			<line fill="none" stroke="#D8D8D8" stroke-width="2" stroke-linecap="round" stroke-linejoin="round" stroke-miterlimit="10" x1="24" y1="15" x2="36" y2="15"/>
		
			<polyline fill="none" stroke="#D8D8D8" stroke-width="2" stroke-linecap="round" stroke-linejoin="round" stroke-miterlimit="10" points="
			32.7,19.8 37.8,14.7 32.8,9.7 		"/>
	</g>
</g>
</svg>
