<?xml version="1.0" encoding="utf-8"?>
<!-- Generator: Adobe Illustrator 18.0.0, SVG Export Plug-In . SVG Version: 6.00 Build 0)  -->
<!DOCTYPE svg PUBLIC "-//W3C//DTD SVG 1.1//EN" "http://www.w3.org/Graphics/SVG/1.1/DTD/svg11.dtd">
<svg version="1.1" id="Layer_1" xmlns="http://www.w3.org/2000/svg" xmlns:xlink="http://www.w3.org/1999/xlink" x="0px" y="0px"
	 viewBox="0 0 40 40" enable-background="new 0 0 40 40" xml:space="preserve">
<path fill="#D8D8D8" d="M24.3,30.4c0,0.5,0.3,0.9,0.7,1.1l0.1,0l0.1,0l0.1,0l0.1,0c0.6,0.2,1.1,0.3,1.7,0.5c1.1,0.4,2.2,0.9,3.2,1.6
	c0.5,0.3,1,0.5,1.5,0.7c0.6,0.1,0.1-0.4-0.7-1.1c-1.5-1.2-3.2-2.2-5-2.8c-0.1,0-0.2-0.1-0.4-0.1l-0.1,0l0,0l0-0.4l0.1-1.6l0-0.8
	v-0.4v0l0,0l0,0v0l0.1-0.1l0.1-0.2c0.1-0.1,0.2-0.2,0.2-0.4c0.2-0.2,0.3-0.5,0.4-0.7c0.5-1,0.9-2.2,1-3.3c1-0.8,1.7-1.9,1.9-3.1
	c0-0.2,0-0.3,0.1-0.5v-0.3c0-0.1,0-0.2,0-0.3c0-0.4-0.2-0.8-0.4-1.2c-0.3-0.5-0.8-0.8-1.3-1l0-2.1c0-1.1-0.3-2.1-1-3
	c-0.6-0.8-1.3-1.5-2.2-2.1c-0.7-0.4-1.4-0.7-2.1-0.9V6.5l0,0c0-0.5-0.4-0.9-0.9-0.9h-1.4c-0.2,0-0.3,0-0.5,0c-0.7,0-1.4,0.2-2.1,0.4
	c-1.3,0.5-2.4,1.3-3.3,2.4c-0.5,0.5-0.9,1.1-1.2,1.7c-0.2,0.3-0.3,0.7-0.4,1c-0.1,0.3-0.2,0.7-0.3,1.1c-0.1,0.4-0.1,0.8-0.1,1.2
	l0,1.1l0,1.4c-0.1,0-0.3,0.1-0.4,0.2c-0.4,0.2-0.7,0.5-1,0.9c-0.3,0.4-0.4,0.8-0.5,1.3c0,0.1,0,0.2,0,0.3v0.3c0,0.2,0,0.4,0.1,0.5
	c0.2,1.3,0.9,2.5,1.9,3.3c0.2,1,0.5,2,0.9,3c0.2,0.5,0.6,1.1,0.9,1.5l0,0v0.2v0.8l0,1.6v0.2L14.3,30c-1.1,0.3-2.1,0.7-3.1,1.2
	c-0.9,0.4-1.8,1-2.6,1.6c-0.6,0.5-0.8,0.9-0.6,1c0.4,0.2,1.8-0.6,3.9-1.5c0.9-0.4,1.9-0.7,2.9-1l0.4-0.1l0.1,0h0h0l0.1,0
	c0.3-0.1,0.5-0.4,0.6-0.7c0-0.1,0-0.1,0-0.2v-0.1v-0.2v-0.4l0-1.6v-0.8V27c0-0.1,0-0.1,0-0.2c0-0.1-0.1-0.3-0.1-0.4
	c0-0.1,0-0.1,0-0.2l-0.1-0.1c-0.3-0.4-0.5-0.8-0.7-1.3c-0.4-0.9-0.7-1.9-0.8-2.8v-0.1l0,0c0-0.2-0.1-0.4-0.3-0.5
	c-0.8-0.6-1.4-1.5-1.6-2.4c0-0.1,0-0.2,0-0.4v-0.2c0-0.1,0-0.1,0-0.1c0-0.2,0.1-0.3,0.2-0.5c0.2-0.3,0.5-0.5,0.9-0.5h0
	c0.4,0,0.7-0.3,0.7-0.7c0,0,0,0,0,0v-3.3c0-0.5,0.1-1,0.2-1.5c0.1-0.5,0.3-0.9,0.6-1.4c0.5-0.9,1.2-1.7,2-2.3c0.8-0.6,1.7-1,2.7-1.1
	l-0.2,0l0.2,0c0.2,0,0.3,0,0.5,0l0.5,0h0.4l0,1.5c0,0.4,0.3,0.7,0.6,0.7h0c1.5,0.2,3,1.2,3.9,2.5c0.4,0.6,0.7,1.3,0.7,2l0,2.7l0,0
	c0,0.5,0.4,0.9,0.9,0.9l0,0c0.3,0,0.6,0.2,0.7,0.4c0.1,0.1,0.1,0.3,0.1,0.4c0,0,0,0.1,0,0.1v0.2c0,0.1,0,0.2,0,0.3
	c-0.2,0.9-0.7,1.8-1.4,2.3l0,0c-0.2,0.1-0.3,0.4-0.4,0.6c-0.1,1.1-0.4,2.2-1,3.3c-0.1,0.2-0.3,0.5-0.4,0.7L24.7,26
	c0,0.1-0.1,0.1-0.2,0.3c-0.1,0.2-0.2,0.3-0.2,0.5c0,0.1,0,0.2,0,0.3L24.3,30.4L24.3,30.4z"/>
</svg>
