<?xml version="1.0" encoding="utf-8"?>
<!-- Generator: Adobe Illustrator 18.0.0, SVG Export Plug-In . SVG Version: 6.00 Build 0)  -->
<!DOCTYPE svg PUBLIC "-//W3C//DTD SVG 1.1//EN" "http://www.w3.org/Graphics/SVG/1.1/DTD/svg11.dtd">
<svg version="1.1" id="Layer_1" xmlns="http://www.w3.org/2000/svg" xmlns:xlink="http://www.w3.org/1999/xlink" x="0px" y="0px"
	 viewBox="0 0 40 40" enable-background="new 0 0 40 40" xml:space="preserve">
<g transform="translate(0,-952.36218)">
	<path fill="#D8D8D8" d="M11.2,960c-0.3,0-0.6,0.2-0.7,0.4L6.9,967c-0.1,0.1-0.1,0.3-0.1,0.4v1.4c0,1.3,0.8,2.5,1.9,3v12.1
		c0,0.5,0.4,0.8,0.8,0.8h3.2h5.7h12c0.5,0,0.8-0.4,0.8-0.8v-12.1c1.1-0.5,1.9-1.7,1.9-3v-1.4c0-0.1,0-0.3-0.1-0.4l-3.6-6.6
		c-0.1-0.3-0.4-0.4-0.7-0.4H11.2z M11.7,961.6h16.6l2.7,5H9L11.7,961.6z M8.4,968.2h3.3v0.6c0,0.9-0.7,1.7-1.7,1.7
		c-0.9,0-1.7-0.7-1.7-1.7V968.2z M13.4,968.2h3.3v0.6c0,0.9-0.7,1.7-1.7,1.7c-0.9,0-1.7-0.7-1.7-1.7V968.2z M18.3,968.2h3.3v0.6
		c0,0.9-0.7,1.7-1.7,1.7s-1.7-0.7-1.7-1.7V968.2z M23.3,968.2h3.3v0.6c0,0.9-0.7,1.7-1.7,1.7s-1.7-0.7-1.7-1.7V968.2z M28.3,968.2
		h3.3v0.6c0,0.9-0.7,1.7-1.7,1.7s-1.7-0.7-1.7-1.7V968.2z M12.6,971c0.6,0.7,1.5,1.1,2.5,1.1s1.9-0.4,2.5-1.1
		c0.6,0.7,1.5,1.1,2.5,1.1s1.9-0.4,2.5-1.1c0.6,0.7,1.5,1.1,2.5,1.1c1,0,1.9-0.4,2.5-1.1c0.5,0.6,1.3,1,2.2,1.1v11H19.2v-8
		c0-0.5-0.4-0.8-0.8-0.8h-5.5c-0.5,0-0.8,0.4-0.8,0.8v8h-1.7v-11C11.2,972,12,971.6,12.6,971z M21.1,974.3c-0.5,0-0.8,0.4-0.8,0.8
		v3.9c0,0.5,0.4,0.8,0.8,0.8h6.1c0.5,0,0.8-0.4,0.8-0.8v-3.9c0-0.5-0.4-0.8-0.8-0.8H21.1z M13.7,975.9h3.9v7.2h-3.9V975.9z
		 M21.9,975.9h4.4v2.2h-4.4V975.9z"/>
</g>
</svg>
