<?xml version="1.0" encoding="utf-8"?>
<!-- Generator: Adobe Illustrator 18.0.0, SVG Export Plug-In . SVG Version: 6.00 Build 0)  -->
<!DOCTYPE svg PUBLIC "-//W3C//DTD SVG 1.1//EN" "http://www.w3.org/Graphics/SVG/1.1/DTD/svg11.dtd">
<svg version="1.1" id="Layer_1" xmlns="http://www.w3.org/2000/svg" xmlns:xlink="http://www.w3.org/1999/xlink" x="0px" y="0px"
	 viewBox="0 0 40 40" enable-background="new 0 0 40 40" xml:space="preserve">
<g>
	<g>
		<path fill="none" d="M15.1,30.3c-0.7,0-1.3,0.6-1.3,1.3c0,0.7,0.6,1.3,1.3,1.3c0.7,0,1.3-0.6,1.3-1.3S15.8,30.3,15.1,30.3z"/>
		<path fill="none" d="M24.7,30.3c-0.7,0-1.3,0.6-1.3,1.3s0.6,1.3,1.3,1.3c0.7,0,1.3-0.6,1.3-1.3C26,30.9,25.4,30.3,24.7,30.3z"/>
		<path fill="#D8D8D8" d="M15.1,28.4c-1.8,0-3.2,1.4-3.2,3.2s1.4,3.2,3.2,3.2s3.2-1.4,3.2-3.2C18.3,29.8,16.9,28.4,15.1,28.4z
			 M15.1,32.9c-0.7,0-1.3-0.6-1.3-1.3c0-0.7,0.6-1.3,1.3-1.3c0.7,0,1.3,0.6,1.3,1.3S15.8,32.9,15.1,32.9z"/>
		<path fill="#D8D8D8" d="M24.7,28.4c-1.8,0-3.2,1.4-3.2,3.2c0,1.8,1.4,3.2,3.2,3.2c1.8,0,3.2-1.4,3.2-3.2S26.5,28.4,24.7,28.4z
			 M24.7,32.9c-0.7,0-1.3-0.6-1.3-1.3s0.6-1.3,1.3-1.3c0.7,0,1.3,0.6,1.3,1.3C26,32.3,25.4,32.9,24.7,32.9z"/>
		<path fill="#D8D8D8" d="M31.4,12h-1L30,14h0.2l-1.5,6.6l-14.6,1.1l-3-7.7h0.1l-0.8-2h-0.1l-1-2.5C9.1,9.1,8.8,9,8.4,9H4.6
			c-0.5,0-1,0.5-1,1c0,0.5,0.4,1,1,1h3.2c1.6,4,3.2,7.9,4.7,11.9L11,26.4c-0.1,0.3-0.1,0.8,0.1,1c0.2,0.3,0.5,0.6,0.8,0.6h16
			c0.5,0,1-0.5,1-1c0-0.5-0.5-1-1-1H13.4l0.8-2.1l15.4-1.3c0.4,0,0.8-0.4,0.9-0.8l1.9-8.5C32.5,12.8,32,12,31.4,12z"/>
	</g>
	<g>
		
			<line fill="none" stroke="#D8D8D8" stroke-width="2" stroke-linecap="round" stroke-linejoin="round" stroke-miterlimit="10" x1="21" y1="4" x2="21" y2="16"/>
		
			<polyline fill="none" stroke="#D8D8D8" stroke-width="2" stroke-linecap="round" stroke-linejoin="round" stroke-miterlimit="10" points="
			16,12.4 21.1,17.5 26.1,12.5 		"/>
	</g>
</g>
</svg>
